<?xml version="1.0" standalone="no"?><!DOCTYPE svg PUBLIC "-//W3C//DTD SVG 1.1//EN" "http://www.w3.org/Graphics/SVG/1.1/DTD/svg11.dtd"><svg t="1681133969344" class="icon" viewBox="0 0 1024 1024" version="1.1" xmlns="http://www.w3.org/2000/svg" p-id="22993" xmlns:xlink="http://www.w3.org/1999/xlink" width="200" height="200"><path d="M443.1 106.8c161.5 0 292.5 130.9 292.5 292.5 0 161.5-130.9 292.5-292.5 292.5-161.5 0-292.5-130.9-292.5-292.5 0.1-161.6 131-292.5 292.5-292.5m0-38.7C260.5 68.1 112 216.7 112 399.3s148.5 331.1 331.1 331.1 331.1-148.5 331.1-331.1S625.7 68.1 443.1 68.1z" fill="#515151" p-id="22994"></path><path d="M879.8 955.9c-9.2 0-18.4-3.9-24.8-11.6L627 670.5c-11.4-13.7-9.5-34 4.2-45.4 13.7-11.4 33.9-9.5 45.4 4.2l228 273.8c11.4 13.7 9.5 34-4.2 45.4-6 4.9-13.3 7.4-20.6 7.4z" fill="#515151" p-id="22995"></path><path d="M271.3 543.3a165.8 32.2 0 1 0 331.6 0 165.8 32.2 0 1 0-331.6 0Z" fill="#515151" p-id="22996"></path><path d="M437 227.2c-55.1 0-99.8 44.8-99.8 100.2 0 55.1 99.8 212.3 99.8 212.3s100.2-157.2 100.2-212.3c-0.1-55.4-44.8-100.2-100.2-100.2z m0 165.3c-30.9 0-55.7-25.1-55.7-56s24.8-56 55.7-56c31.2 0 56 25.1 56 56 0 30.8-24.8 56-56 56z" fill="#515151" p-id="22997"></path></svg>