<?xml version="1.0" standalone="no"?><!DOCTYPE svg PUBLIC "-//W3C//DTD SVG 1.1//EN" "http://www.w3.org/Graphics/SVG/1.1/DTD/svg11.dtd"><svg t="1681612498963" class="icon" viewBox="0 0 1024 1024" version="1.1" xmlns="http://www.w3.org/2000/svg" p-id="15876" width="32" height="32" xmlns:xlink="http://www.w3.org/1999/xlink"><path d="M375.685235 597.671251m25.041008-25.041008l0 0q25.041008-25.041008 50.082016 0l117.059171 117.059171q25.041008 25.041008 0 50.082016l0 0q-25.041008 25.041008-50.082016 0l-117.059171-117.059171q-25.041008-25.041008 0-50.082016Z" fill="#8F96B4" p-id="15877"></path><path d="M777.352975 431.324329m25.041008 25.041008l0 0q25.041008 25.041008 0 50.082017l-233.514943 233.514943q-25.041008 25.041008-50.082017 0l0 0q-25.041008-25.041008 0-50.082016l233.514944-233.514944q25.041008-25.041008 50.082016 0Z" fill="#8F96B4" p-id="15878"></path><path d="M853.333333 938.666667H298.666667a89.6 89.6 0 0 1-89.6-89.6v-554.666667A89.6 89.6 0 0 1 298.666667 206.08h554.666666a89.6 89.6 0 0 1 89.6 89.173333v554.666667A89.6 89.6 0 0 1 853.333333 938.666667zM298.666667 276.906667a18.773333 18.773333 0 0 0-18.773334 18.346666v554.666667a18.773333 18.773333 0 0 0 18.773334 18.773333h554.666666a18.773333 18.773333 0 0 0 18.773334-18.773333v-554.666667a18.773333 18.773333 0 0 0-18.773334-18.346666z" fill="#8F96B4" p-id="15879"></path><path d="M118.186667 716.373333A32.853333 32.853333 0 0 1 85.333333 682.666667V170.666667a85.333333 85.333333 0 0 1 85.333334-85.333334h512a33.28 33.28 0 0 1 0 66.133334H170.666667a17.493333 17.493333 0 0 0-17.493334 17.066666V682.666667a32.853333 32.853333 0 0 1-34.986666 33.706666z" fill="#8F96B4" p-id="15880"></path></svg>