<?xml version="1.0" standalone="no"?><!DOCTYPE svg PUBLIC "-//W3C//DTD SVG 1.1//EN" "http://www.w3.org/Graphics/SVG/1.1/DTD/svg11.dtd"><svg t="1681610793118" class="icon" viewBox="0 0 1024 1024" version="1.1" xmlns="http://www.w3.org/2000/svg" p-id="10823" width="16" height="16" xmlns:xlink="http://www.w3.org/1999/xlink"><path d="M626.822737 922.947368c-93.507368 0-154.758737-19.348211-212.884211-67.691789l41.903158-51.577263c45.136842 38.696421 93.507368 51.577263 174.106948 51.577263a293.726316 293.726316 0 0 0 16.168421-586.778947l3.233684-64.485053a359.909053 359.909053 0 0 1-22.528 718.955789z" fill="#83D2EA" p-id="10824"></path><path d="M404.318316 868.136421a378.826105 378.826105 0 0 1 0-757.65221 378.826105 378.826105 0 0 1 0 757.65221z m0-693.167158a312.724211 312.724211 0 1 0 312.589473 312.778105 313.020632 313.020632 0 0 0-312.589473-312.778105z" fill="#208BB5" p-id="10825"></path><path d="M365.594947 658.566737l-128.970105-138.644211a31.905684 31.905684 0 0 1 45.136842-45.136842l83.833263 90.273684 203.129264-203.102315a31.905684 31.905684 0 0 1 45.136842 45.136842z" fill="#83D2EA" p-id="10826"></path></svg>